<svg xmlns="http://www.w3.org/2000/svg" viewBox="0 0 386.6 82.98"><defs><style>.cls-1{fill:#aa343a;}.cls-2{fill:#818282;}</style></defs><title>Asset 1</title><g id="Layer_2" data-name="Layer 2"><g id="Layer_1-2" data-name="Layer 1"><path class="cls-1" d="M194.67,37.48l-7,9.81c-5,7-10,14-15,20.95a9.66,9.66,0,0,1-10.63,4A10.05,10.05,0,0,1,156.31,68q-7.72-10.76-15.47-21.51c-2.26-3.14-4.52-6.28-7-9.4v1.21c0,10.8,0,21.6,0,32.4,0,1-.21,1.29-1.23,1.27-4.2-.06-8.4,0-12.6,0-.82,0-1.07-.19-1.07-1q0-15.66,0-31.32a2.32,2.32,0,0,1,.34-1.36c3-4.48,4.16-9.54,4.78-14.78a94.17,94.17,0,0,0,.38-12.21c0-.86.22-1.18,1.1-1.27a9.51,9.51,0,0,1,9.18,4q14.47,19.35,29,38.66A3.21,3.21,0,0,1,164,53c.46.86.81.8,1.38,0q11.33-15.48,22.71-30.92c2.06-2.8,4.11-5.61,6.18-8.4a9,9,0,0,1,10.2-3.38,7.49,7.49,0,0,1,4.94,5.15,1.66,1.66,0,0,1-.24,1.46c-1,1.64-1.94,3.3-2.89,5a5,5,0,0,0,1.2,6.65,4.9,4.9,0,0,0,.95.73c1.37.65,1.47,1.81,1.37,3.11,0,.49-.18.72-.67.77-.91.11-1.82.26-2.73.37a5,5,0,0,0-4.62,5.17q0,2.76,0,5.52a5,5,0,0,0,4.51,5.15c.55.08,1.11.13,1.66.24s1.46-.17,1.79.58a2.94,2.94,0,0,1-.87,3.07c-.5.4-1,.78-1.5,1.19a4.91,4.91,0,0,0-1.2,6.37c.91,1.68,1.83,3.37,2.89,5a4.14,4.14,0,0,1,.73,2.68c-.06,1.11.36,2.61-.21,3.24s-2.18.21-3.33.22c-3.32,0-6.64,0-10,0-1.05,0-1.4-.2-1.4-1.35,0-10.64,0-21.28,0-31.92V37.56Z"/><path class="cls-1" d="M41.68,72.2c-6.44,0-12.88.09-19.32,0A33.06,33.06,0,0,1,9.08,69.43c-6-2.73-9-7.44-9-13.91Q-.07,41.06.06,26.6C.12,19.86,3.75,15.52,9.77,13a33.16,33.16,0,0,1,13-2.4c10.92,0,21.84,0,32.76,0,1,0,1.18.28,1.17,1.2A93.39,93.39,0,0,0,57,23.82c.06.51-.08.76-.62.71-.28,0-.56,0-.84,0q-16.74,0-33.48,0a17.92,17.92,0,0,0-5.21.64c-1.7.51-2,1-2,2.72q0,13,0,26c0,2,.42,2.58,2.31,3.26a21.62,21.62,0,0,0,7.33,1q18.6,0,37.2,0c1.06,0,1.43.21,1.41,1.36-.08,3.88-.06,7.76,0,11.64,0,.89-.2,1.14-1.12,1.13-6.76,0-13.52,0-20.28,0Z"/><path class="cls-1" d="M333.83,49.79c0-6.68,0-13.35,0-20a11.12,11.12,0,0,0-.75-4,2,2,0,0,0-2.1-1.41q-13.44,0-26.87,0a2.64,2.64,0,0,0-2.71,1.89,19.12,19.12,0,0,0-1.11,7.18q0,18.29,0,36.59c0,1.18-.32,1.45-1.46,1.43-3.88-.07-7.76-.05-11.64,0-.84,0-1.1-.23-1.09-1.08q.06-5.76,0-11.52c0-.74.28-1,.92-1.26A6.7,6.7,0,0,0,291.15,49a34,34,0,0,0-3.75-8.39,8.32,8.32,0,0,1-1.3-5c.18-4.31.25-8.62,1.41-12.82a19.8,19.8,0,0,1,4.13-8.15c3.05-3.43,7-4.75,11.48-4.78,9.56-.05,19.11-.07,28.67,0,6.48.05,10.9,3.33,13.55,9.14A33.37,33.37,0,0,1,347.92,33c.05,10.08,0,20.15,0,30.23,0,1-.27,1.22-1.2,1.18-1.64-.07-3.28.05-4.92,0-1.2-.07-1.7.2-1.59,1.52.13,1.51,0,3,0,4.56,0,.76-.15,1.07-1,1-1.44-.07-2.88-.07-4.32,0-.91,0-1.15-.25-1.14-1.15,0-6.84,0-13.68,0-20.51Z"/><path class="cls-1" d="M248.39,73.88c0-2.72,0-5.44,0-8.16,0-.64.14-.88.84-1,11-1.23,19.3-9,20.91-19.91a23.26,23.26,0,0,0-19.43-26.44c-2.3-.35-2.3-.34-2.3-2.64q0-7,0-14c0-1.66,0-1.66,1.63-1.57a35.67,35.67,0,0,1,22,8.89,34.91,34.91,0,0,1,11.7,21.29,35.15,35.15,0,0,1,.38,7.39,3.9,3.9,0,0,0,.63,2.36,44.66,44.66,0,0,1,4.11,8.37c1.44,4,.24,6.4-3.78,7.61-.59.18-.74.46-1,1-1.6,3.47,0,7-.49,10.52-.15,1.15-.07,2.33-.27,3.46-.62,3.38-3,5.34-6.61,5.41-4,.08-8,.06-12,0-1,0-1.19.26-1.18,1.19,0,3.63-1.61,5.23-5.28,5.23-2.84,0-5.68-.06-8.52,0-1.16,0-1.38-.37-1.35-1.42C248.44,79,248.39,76.44,248.39,73.88Z"/><path class="cls-1" d="M90.15,28.55h13.08c1.66,0,2.17-.32,2.78-1.89a21,21,0,0,0,1.21-6.93c.11-2.76.1-5.52.07-8.27,0-.9.17-1.25,1.17-1.23,4,.06,8,0,12,0,.46,0,.95-.13.95.66,0,5.79.17,11.6-1.24,17.29a24.21,24.21,0,0,1-4.65,10,13.94,13.94,0,0,1-10.91,5.13c-1.8,0-3.6.06-5.4,0-.91,0-1.12.24-1.12,1.13.05,8.84,0,17.67.1,26.51,0,1.1-.31,1.3-1.33,1.29-4.08-.06-8.16-.07-12.24,0-1.15,0-1.35-.36-1.34-1.4,0-8.2,0-16.4,0-24.59,0-2.91,0-2.89-2.94-2.92-2.75,0-5.53.27-8.24-.43-5.07-1.32-8.22-4.72-10-9.5a44.6,44.6,0,0,1-2.42-14.59c-.06-2.52,0-5,0-7.56,0-.73.12-1,1-1q6.06.07,12.12,0c.76,0,.92.24.93,1,0,3.68-.16,7.36.15,11A20.14,20.14,0,0,0,74.77,27,2,2,0,0,0,77,28.58C81.36,28.5,85.76,28.55,90.15,28.55Z"/><path class="cls-2" d="M245.77,9.15c0,2.64,0,5.28,0,7.92,0,.76-.12,1.11-1,1.18a23.38,23.38,0,0,0-2.44,46.18,7.2,7.2,0,0,0,2,.31c1.27-.1,1.48.45,1.47,1.6-.06,5,0,10.08,0,15.12,0,1.52,0,1.52-1.57,1.52h-.84c-1.48,0-2-.52-2.18-2s-.46-3.16-.67-4.74a2.09,2.09,0,0,0-1.81-1.94c-.93-.21-1.86-.46-2.77-.75a2.64,2.64,0,0,0-3.31,1.15c-.84,1.21-1.82,2.33-2.7,3.52a1.66,1.66,0,0,1-2.41.5q-2.45-1.4-4.87-2.82a1.53,1.53,0,0,1-.69-2.14c.65-1.55,1.24-3.11,1.89-4.66a2.2,2.2,0,0,0-.56-2.71,26.76,26.76,0,0,1-2.11-2.13,2.52,2.52,0,0,0-3.23-.64c-1.4.58-2.82,1.13-4.21,1.71a1.69,1.69,0,0,1-2.41-.82c-.86-1.53-1.76-3-2.63-4.57-.66-1.17-.55-1.73.52-2.58q1.88-1.49,3.79-2.94a2.13,2.13,0,0,0,.88-2.51c-.34-1.15-.63-2.31-.94-3.47A2.08,2.08,0,0,0,211,46.77c-1.66-.21-3.32-.48-5-.7a1.58,1.58,0,0,1-1.54-1.77q0-2.82,0-5.64A1.54,1.54,0,0,1,205.91,37c1.66-.24,3.31-.49,5-.7a2.16,2.16,0,0,0,2-1.73c1.63-6,1.57-4.62-2.5-7.88-2.59-2.07-2.62-2-1-4.89.62-1.07,1.26-2.13,1.84-3.22a1.69,1.69,0,0,1,2.41-.84c1.44.58,2.9,1.14,4.33,1.75a2.49,2.49,0,0,0,3.12-.7c.69-.77,1.44-1.49,2.18-2.23a2.15,2.15,0,0,0,.52-2.52c-.62-1.52-1.2-3-1.85-4.55A1.67,1.67,0,0,1,222.76,7c1.6-.9,3.2-1.81,4.78-2.75a1.58,1.58,0,0,1,2.3.47c1,1.23,1.94,2.44,2.86,3.7a2.37,2.37,0,0,0,2.91,1c1.06-.35,2.16-.56,3.24-.86a2,2,0,0,0,1.65-1.82c.2-1.62.46-3.24.68-4.86a1.8,1.8,0,0,1,2-1.83c2.63-.16,2.63-.16,2.63,2.49Q245.77,5.85,245.77,9.15Z"/><path class="cls-1" d="M359.19,58.94c0-1.92,0-3.84,0-5.76a5.71,5.71,0,0,1,3.48-5.42,10.68,10.68,0,0,1,4.5-1.13,92.42,92.42,0,0,1,12.94.17,11.08,11.08,0,0,1,1.86.43c3,.89,4.43,2.53,4.54,5.59.14,4,.11,8.08,0,12.11-.07,2.84-1.72,4.62-4.33,5.57a14.74,14.74,0,0,1-4.82.84c-4,.07-7.91.34-11.84-.34a10,10,0,0,1-3.36-1.21,5.55,5.55,0,0,1-3-5.1C359.2,62.78,359.19,60.86,359.19,58.94Zm5,0q0,2.28,0,4.56c0,2.13.42,2.73,2.52,3a71.57,71.57,0,0,0,11.6.14,6.53,6.53,0,0,0,1.51-.33,2.16,2.16,0,0,0,1.74-2.37c0-3.08,0-6.15,0-9.23,0-2.32-.62-3.07-2.93-3.36a71.84,71.84,0,0,0-10.53-.14,8.9,8.9,0,0,0-2.23.42,2.07,2.07,0,0,0-1.68,2.28C364.25,55.57,364.2,57.25,364.2,58.93Z"/><path class="cls-1" d="M356,58.9c0,3.79,0,7.59,0,11.38,0,.86-.17,1.25-1.11,1.17a26.8,26.8,0,0,0-3.11,0c-.63,0-.82-.22-.82-.83q0-11.62,0-23.24c0-.6.13-.88.79-.83,1.38.11,3.12-.55,4,.28.74.68.19,2.42.2,3.69C356.06,53.31,356,56.1,356,58.9Z"/><path class="cls-1" d="M345.3,71.43c-2.53,0-2.53,0-2.53-2.58,0-2.4,0-2.4,2.45-2.4s2.58,0,2.58,2.61C347.79,71.43,347.79,71.43,345.3,71.43Z"/></g></g></svg>